<?xml version="1.0" standalone="no"?>
<!DOCTYPE svg PUBLIC "-//W3C//DTD SVG 20010904//EN"
 "http://www.w3.org/TR/2001/REC-SVG-20010904/DTD/svg10.dtd">
<svg version="1.0" xmlns="http://www.w3.org/2000/svg"
 width="87.000000pt" height="87.000000pt" viewBox="0 0 87.000000 87.000000"
 preserveAspectRatio="xMidYMid meet">

<g transform="translate(0.000000,87.000000) scale(0.100000,-0.100000)"
fill="#000000" stroke="none">
<path d="M420 826 l0 -43 93 -5 c79 -4 102 -10 147 -34 106 -58 145 -150 138
-328 -5 -128 -26 -185 -86 -237 -60 -53 -106 -69 -204 -69 l-88 0 0 54 0 53
-58 6 c-70 6 -112 26 -138 64 -28 42 -33 233 -7 283 28 54 75 80 144 80 l59 0
0 -210 0 -210 78 0 c88 0 129 18 162 72 28 46 29 226 1 278 -31 60 -72 80
-162 80 l-79 0 0 55 0 55 -51 0 c-120 0 -208 -51 -255 -147 -27 -55 -29 -65
-29 -188 0 -117 2 -135 23 -175 53 -101 132 -150 245 -150 l67 0 0 -55 0 -55
225 0 225 0 0 435 0 435 -225 0 -225 0 0 -44z"/>
</g>
</svg>
